{
	"asset":{
		"generator":"Khronos glTF Blender I/O v4.2.57",
		"version":"2.0"
	},
	"extensionsUsed":[
		"KHR_materials_variants"
	],
	"extensionsRequired":[
		"KHR_materials_variants"
	],
	"extensions":{
		"KHR_materials_variants":{
			"variants":[
				{
					"name":"shoyu-tonkotsu"
				},
				{
					"name":"miso-spicy"
				}
			]
		}
	},
	"scene":0,
	"scenes":[
		{
			"name":"Scene",
			"nodes":[
				0
			]
		}
	],
	"nodes":[
		{
			"mesh":0,
			"name":"ramen",
			"rotation":[
				-0.5,
				-0.5000000596046448,
				-0.49999988079071045,
				0.5000002384185791
			],
			"scale":[
				0.37124502658843994,
				0.37124496698379517,
				0.37124502658843994
			],
			"translation":[
				0.028367476537823677,
				0.007572454400360584,
				-0.09469088912010193
			]
		}
	],
	"materials":[
		{
			"alphaMode":"BLEND",
			"name":"suop-shoyu-tonkotsu",
			"pbrMetallicRoughness":{
				"baseColorTexture":{
					"index":0
				},
				"metallicFactor":0,
				"roughnessFactor":0.5764706134796143
			}
		},
		{
			"alphaMode":"BLEND",
			"name":"suop-miso-spicy",
			"pbrMetallicRoughness":{
				"baseColorTexture":{
					"index":1
				},
				"metallicFactor":0,
				"roughnessFactor":0.5764706134796143
			}
		},
		{
			"name":"\u3046\u305a\u3089",
			"pbrMetallicRoughness":{
				"baseColorFactor":[
					0.8000000715255737,
					0.8000000715255737,
					0.8000000715255737,
					1
				],
				"metallicFactor":0,
				"roughnessFactor":0.5764706134796143
			}
		},
		{
			"name":"\u30d0\u30bf\u30fc",
			"pbrMetallicRoughness":{
				"baseColorFactor":[
					0.8000000715255737,
					0.7254902124404907,
					0,
					1
				],
				"metallicFactor":0,
				"roughnessFactor":0.5764706134796143
			}
		},
		{
			"name":"\u3046\u3064\u308f",
			"pbrMetallicRoughness":{
				"baseColorFactor":[
					0.3686274588108063,
					0.3686274588108063,
					0.3686274588108063,
					1
				],
				"metallicFactor":0,
				"roughnessFactor":0.18031954765319824
			}
		},
		{
			"name":"\u305f\u307e\u3054\u3057\u308d\u307f",
			"pbrMetallicRoughness":{
				"baseColorFactor":[
					0.6644057631492615,
					0.8010924458503723,
					0.8010924458503723,
					1
				],
				"metallicFactor":0,
				"roughnessFactor":0.5764706134796143
			}
		},
		{
			"name":"\u305f\u307e\u3054\u304d\u307f",
			"pbrMetallicRoughness":{
				"baseColorFactor":[
					0.8862745761871338,
					0.20000001788139343,
					0.04313725605607033,
					1
				],
				"metallicFactor":0,
				"roughnessFactor":0.5764706134796143
			}
		},
		{
			"doubleSided":true,
			"name":"nori",
			"pbrMetallicRoughness":{
				"baseColorTexture":{
					"index":2
				},
				"metallicFactor":0
			}
		}
	],
	"meshes":[
		{
			"name":"Mesh_6.002",
			"primitives":[
				{
					"attributes":{
						"POSITION":0,
						"NORMAL":1,
						"TEXCOORD_0":2
					},
					"extensions":{
						"KHR_materials_variants":{
							"mappings":[
								{
									"material":0,
									"variants":[
										0
									]
								},
								{
									"material":1,
									"variants":[
										1
									]
								}
							]
						}
					},
					"indices":3,
					"material":0
				},
				{
					"attributes":{
						"POSITION":4,
						"NORMAL":5,
						"TEXCOORD_0":6
					},
					"extensions":{
						"KHR_materials_variants":{
							"mappings":[
								{
									"material":2,
									"variants":[
										0,
										1
									]
								}
							]
						}
					},
					"indices":7,
					"material":2
				},
				{
					"attributes":{
						"POSITION":8,
						"NORMAL":9,
						"TEXCOORD_0":10
					},
					"extensions":{
						"KHR_materials_variants":{
							"mappings":[
								{
									"material":3,
									"variants":[
										0,
										1
									]
								}
							]
						}
					},
					"indices":11,
					"material":3
				},
				{
					"attributes":{
						"POSITION":12,
						"NORMAL":13,
						"TEXCOORD_0":14
					},
					"extensions":{
						"KHR_materials_variants":{
							"mappings":[
								{
									"material":4,
									"variants":[
										0,
										1
									]
								}
							]
						}
					},
					"indices":15,
					"material":4
				},
				{
					"attributes":{
						"POSITION":16,
						"NORMAL":17,
						"TEXCOORD_0":18
					},
					"extensions":{
						"KHR_materials_variants":{
							"mappings":[
								{
									"material":5,
									"variants":[
										0,
										1
									]
								}
							]
						}
					},
					"indices":19,
					"material":5
				},
				{
					"attributes":{
						"POSITION":20,
						"NORMAL":21,
						"TEXCOORD_0":22
					},
					"extensions":{
						"KHR_materials_variants":{
							"mappings":[
								{
									"material":6,
									"variants":[
										0,
										1
									]
								}
							]
						}
					},
					"indices":23,
					"material":6
				},
				{
					"attributes":{
						"POSITION":24,
						"NORMAL":25,
						"TEXCOORD_0":26
					},
					"extensions":{
						"KHR_materials_variants":{
							"mappings":[
								{
									"material":7,
									"variants":[
										0,
										1
									]
								}
							]
						}
					},
					"indices":27,
					"material":7
				}
			]
		}
	],
	"textures":[
		{
			"sampler":0,
			"source":0
		},
		{
			"sampler":0,
			"source":1
		},
		{
			"sampler":0,
			"source":2
		}
	],
	"images":[
		{
			"mimeType":"image/png",
			"name":"soup",
			"uri":"soup.png"
		},
		{
			"mimeType":"image/png",
			"name":"soup-miso-spicy",
			"uri":"soup-miso-spicy.png"
		},
		{
			"mimeType":"image/png",
			"name":"nori",
			"uri":"nori.png"
		}
	],
	"accessors":[
		{
			"bufferView":0,
			"componentType":5126,
			"count":16,
			"max":[
				0.9827581644058228,
				0.9877097606658936,
				0.07279366254806519
			],
			"min":[
				-1.0459110736846924,
				-1.0409594774246216,
				0.07279366254806519
			],
			"type":"VEC3"
		},
		{
			"bufferView":1,
			"componentType":5126,
			"count":16,
			"type":"VEC3"
		},
		{
			"bufferView":2,
			"componentType":5126,
			"count":16,
			"type":"VEC2"
		},
		{
			"bufferView":3,
			"componentType":5123,
			"count":42,
			"type":"SCALAR"
		},
		{
			"bufferView":4,
			"componentType":5126,
			"count":2795,
			"max":[
				0.04682321473956108,
				0.0406191311776638,
				0.1659131497144699
			],
			"min":[
				-0.714267373085022,
				-0.3783165216445923,
				0.01661032810807228
			],
			"type":"VEC3"
		},
		{
			"bufferView":5,
			"componentType":5126,
			"count":2795,
			"type":"VEC3"
		},
		{
			"bufferView":6,
			"componentType":5126,
			"count":2795,
			"type":"VEC2"
		},
		{
			"bufferView":7,
			"componentType":5123,
			"count":14400,
			"type":"SCALAR"
		},
		{
			"bufferView":8,
			"componentType":5126,
			"count":24,
			"max":[
				0.5943248271942139,
				0.8232357501983643,
				0.11497350037097931
			],
			"min":[
				0.17705436050891876,
				0.4680095613002777,
				0.023409834131598473
			],
			"type":"VEC3"
		},
		{
			"bufferView":9,
			"componentType":5126,
			"count":24,
			"type":"VEC3"
		},
		{
			"bufferView":10,
			"componentType":5126,
			"count":24,
			"type":"VEC2"
		},
		{
			"bufferView":11,
			"componentType":5123,
			"count":36,
			"type":"SCALAR"
		},
		{
			"bufferView":12,
			"componentType":5126,
			"count":447,
			"max":[
				1.142045021057129,
				1.1472445726394653,
				0.23382069170475006
			],
			"min":[
				-1.2083624601364136,
				-1.203162670135498,
				-0.7076048254966736
			],
			"type":"VEC3"
		},
		{
			"bufferView":13,
			"componentType":5126,
			"count":447,
			"type":"VEC3"
		},
		{
			"bufferView":14,
			"componentType":5126,
			"count":447,
			"type":"VEC2"
		},
		{
			"bufferView":15,
			"componentType":5123,
			"count":1920,
			"type":"SCALAR"
		},
		{
			"bufferView":16,
			"componentType":5126,
			"count":590,
			"max":[
				0.11679282039403915,
				0.7752389311790466,
				0.1708267331123352
			],
			"min":[
				-0.5184769630432129,
				0.37755072116851807,
				0.03739798069000244
			],
			"type":"VEC3"
		},
		{
			"bufferView":17,
			"componentType":5126,
			"count":590,
			"type":"VEC3"
		},
		{
			"bufferView":18,
			"componentType":5126,
			"count":590,
			"type":"VEC2"
		},
		{
			"bufferView":19,
			"componentType":5123,
			"count":2688,
			"type":"SCALAR"
		},
		{
			"bufferView":20,
			"componentType":5126,
			"count":394,
			"max":[
				0.054809022694826126,
				0.6883078217506409,
				0.1721235066652298
			],
			"min":[
				-0.46794816851615906,
				0.47184041142463684,
				0.1685178428888321
			],
			"type":"VEC3"
		},
		{
			"bufferView":21,
			"componentType":5126,
			"count":394,
			"type":"VEC3"
		},
		{
			"bufferView":22,
			"componentType":5126,
			"count":394,
			"type":"VEC2"
		},
		{
			"bufferView":23,
			"componentType":5123,
			"count":744,
			"type":"SCALAR"
		},
		{
			"bufferView":24,
			"componentType":5126,
			"count":12,
			"max":[
				1.1616865396499634,
				0.6890285611152649,
				1.1256085634231567
			],
			"min":[
				0.15576708316802979,
				-1.1342358589172363,
				-0.1303037405014038
			],
			"type":"VEC3"
		},
		{
			"bufferView":25,
			"componentType":5126,
			"count":12,
			"type":"VEC3"
		},
		{
			"bufferView":26,
			"componentType":5126,
			"count":12,
			"type":"VEC2"
		},
		{
			"bufferView":27,
			"componentType":5123,
			"count":18,
			"type":"SCALAR"
		}
	],
	"bufferViews":[
		{
			"buffer":0,
			"byteLength":192,
			"byteOffset":0,
			"target":34962
		},
		{
			"buffer":0,
			"byteLength":192,
			"byteOffset":192,
			"target":34962
		},
		{
			"buffer":0,
			"byteLength":128,
			"byteOffset":384,
			"target":34962
		},
		{
			"buffer":0,
			"byteLength":84,
			"byteOffset":512,
			"target":34963
		},
		{
			"buffer":0,
			"byteLength":33540,
			"byteOffset":596,
			"target":34962
		},
		{
			"buffer":0,
			"byteLength":33540,
			"byteOffset":34136,
			"target":34962
		},
		{
			"buffer":0,
			"byteLength":22360,
			"byteOffset":67676,
			"target":34962
		},
		{
			"buffer":0,
			"byteLength":28800,
			"byteOffset":90036,
			"target":34963
		},
		{
			"buffer":0,
			"byteLength":288,
			"byteOffset":118836,
			"target":34962
		},
		{
			"buffer":0,
			"byteLength":288,
			"byteOffset":119124,
			"target":34962
		},
		{
			"buffer":0,
			"byteLength":192,
			"byteOffset":119412,
			"target":34962
		},
		{
			"buffer":0,
			"byteLength":72,
			"byteOffset":119604,
			"target":34963
		},
		{
			"buffer":0,
			"byteLength":5364,
			"byteOffset":119676,
			"target":34962
		},
		{
			"buffer":0,
			"byteLength":5364,
			"byteOffset":125040,
			"target":34962
		},
		{
			"buffer":0,
			"byteLength":3576,
			"byteOffset":130404,
			"target":34962
		},
		{
			"buffer":0,
			"byteLength":3840,
			"byteOffset":133980,
			"target":34963
		},
		{
			"buffer":0,
			"byteLength":7080,
			"byteOffset":137820,
			"target":34962
		},
		{
			"buffer":0,
			"byteLength":7080,
			"byteOffset":144900,
			"target":34962
		},
		{
			"buffer":0,
			"byteLength":4720,
			"byteOffset":151980,
			"target":34962
		},
		{
			"buffer":0,
			"byteLength":5376,
			"byteOffset":156700,
			"target":34963
		},
		{
			"buffer":0,
			"byteLength":4728,
			"byteOffset":162076,
			"target":34962
		},
		{
			"buffer":0,
			"byteLength":4728,
			"byteOffset":166804,
			"target":34962
		},
		{
			"buffer":0,
			"byteLength":3152,
			"byteOffset":171532,
			"target":34962
		},
		{
			"buffer":0,
			"byteLength":1488,
			"byteOffset":174684,
			"target":34963
		},
		{
			"buffer":0,
			"byteLength":144,
			"byteOffset":176172,
			"target":34962
		},
		{
			"buffer":0,
			"byteLength":144,
			"byteOffset":176316,
			"target":34962
		},
		{
			"buffer":0,
			"byteLength":96,
			"byteOffset":176460,
			"target":34962
		},
		{
			"buffer":0,
			"byteLength":36,
			"byteOffset":176556,
			"target":34963
		}
	],
	"samplers":[
		{
			"magFilter":9729,
			"minFilter":9987
		}
	],
	"buffers":[
		{
			"byteLength":176592,
			"uri":"ramen.bin"
		}
	]
}
